<?xml version="1.0" encoding="iso-8859-1"?>
<!-- Generator: Adobe Illustrator 19.0.0, SVG Export Plug-In . SVG Version: 6.00 Build 0)  -->
<svg version="1.1" id="Layer_1" xmlns="http://www.w3.org/2000/svg" xmlns:xlink="http://www.w3.org/1999/xlink" x="0px" y="0px"
	 viewBox="0 0 512.001 512.001" style="enable-background:new 0 0 512.001 512.001;" xml:space="preserve">
<g>
	<g>
		<path d="M232.138,407.363l-26.697,20.057c5.091,6.776,7.781,14.856,7.781,23.365h33.391
			C246.613,434.984,241.608,419.969,232.138,407.363z"/>
	</g>
</g>
<g>
	<g>
		<path d="M279.858,407.363c-9.47,12.606-14.475,27.621-14.475,43.422h33.391c0-8.51,2.69-16.589,7.781-23.365L279.858,407.363z"/>
	</g>
</g>
<g>
	<g>
		<path d="M157.572,367.304c-12.27,0-22.256,9.984-22.261,22.261c0,12.275,9.984,22.261,22.258,22.261h0.003
			c12.275,0,22.261-9.986,22.261-22.261C179.833,377.291,169.847,367.304,157.572,367.304z"/>
	</g>
</g>
<g>
	<g>
		<path d="M354.428,367.304c-12.27,0-22.256,9.984-22.261,22.261c0,12.275,9.985,22.261,22.256,22.261h0.004
			c12.275,0,22.261-9.986,22.261-22.261C376.689,377.291,366.703,367.304,354.428,367.304z"/>
	</g>
</g>
<g>
	<g>
		<path d="M484.174,72.349c0-16.352-6.369-31.725-17.93-43.287c-11.563-11.563-26.936-17.93-43.289-17.93
			c-16.352,0-31.725,6.368-43.287,17.93l-23.759,23.76c-20.724-11.742-44.493-18.707-69.806-19.376
			C277.859,11.636,269.452,0,255.999,0c-13.453,0-21.858,11.635-30.106,33.446c-25.313,0.67-49.081,7.634-69.805,19.376
			l-23.758-23.76c-11.562-11.563-26.935-17.93-43.287-17.93c-16.353,0-31.724,6.368-43.287,17.93
			c-11.562,11.562-17.93,26.936-17.93,43.288c0,16.352,6.368,31.725,17.93,43.286c11.378,11.378,26.446,17.711,42.505,17.912
			c-5.563,15.678-8.602,32.542-8.602,50.105V361.74c0,82.855,67.407,150.261,150.261,150.261h52.161
			c82.854,0,150.261-67.406,150.261-150.261V183.652c0-17.562-3.039-34.426-8.601-50.105c16.058-0.201,31.127-6.535,42.503-17.912
			C477.807,104.074,484.174,88.701,484.174,72.349z M226.02,163.346c12.847-60.328,23.057-95.97,29.98-115.11
			c6.924,19.14,17.133,54.782,29.981,115.11c14.312,67.208,23.926,128.066,23.926,142.741c0,26.682-25.19,50.087-53.907,50.087
			c-28.717,0-53.906-23.405-53.906-50.087C202.094,291.411,211.708,230.554,226.02,163.346z M89.044,100.175
			c-7.433,0-14.422-2.895-19.678-8.151c-5.255-5.255-8.149-12.241-8.149-19.674c0-7.434,2.895-14.421,8.151-19.677
			c5.256-5.256,12.243-8.15,19.676-8.15c7.433,0,14.419,2.895,19.675,8.15l19.676,19.677l-19.677,19.675
			C103.464,97.282,96.476,100.175,89.044,100.175z M398.952,361.739h-0.002c0,64.442-52.427,116.87-116.87,116.87H229.92
			c-64.442,0-116.87-52.428-116.87-116.87V183.652c0-59.34,44.454-108.488,101.807-115.901
			c-5.934,20.814-12.345,46.76-18.813,76.229c-14.82,67.522-27.341,141.757-27.341,162.107c0,45.25,39.977,83.478,87.297,83.478
			c47.321,0,87.298-38.229,87.298-83.478c0-20.349-12.521-94.585-27.341-162.107c-6.468-29.47-12.879-55.416-18.813-76.229
			c57.353,7.412,101.807,56.562,101.807,115.901V361.739z M442.632,92.025c-5.256,5.256-12.243,8.15-19.676,8.15
			s-14.421-2.895-19.676-8.15L383.603,72.35l19.677-19.677c5.256-5.256,12.242-8.15,19.675-8.15s14.421,2.895,19.677,8.15
			c5.256,5.256,8.15,12.243,8.15,19.676S447.889,86.768,442.632,92.025z"/>
	</g>
</g>
<g>
</g>
<g>
</g>
<g>
</g>
<g>
</g>
<g>
</g>
<g>
</g>
<g>
</g>
<g>
</g>
<g>
</g>
<g>
</g>
<g>
</g>
<g>
</g>
<g>
</g>
<g>
</g>
<g>
</g>
</svg>
